<?xml version="1.0" standalone="no"?>
<!DOCTYPE svg PUBLIC "-//W3C//DTD SVG 20010904//EN"
 "http://www.w3.org/TR/2001/REC-SVG-20010904/DTD/svg10.dtd">
<svg version="1.0" xmlns="http://www.w3.org/2000/svg"
 width="759.000000pt" height="759.000000pt" viewBox="0 0 759.000000 759.000000"
 preserveAspectRatio="xMidYMid meet">
<metadata>
Created by potrace 1.14, written by Peter Selinger 2001-2017
</metadata>
<g transform="translate(0.000000,759.000000) scale(0.100000,-0.100000)"
fill="#000000" stroke="none">
<path d="M5652 4714 l3 -699 105 0 c179 1 319 62 456 199 87 88 137 166 175
281 21 61 24 89 24 215 0 126 -3 154 -24 215 -38 115 -87 193 -175 281 -136
136 -265 193 -454 201 l-112 6 2 -699z"/>
<path d="M1300 5175 l0 -35 48 0 c26 0 64 -5 84 -10 31 -9 38 -16 43 -43 3
-18 5 -235 3 -484 -2 -334 -6 -455 -15 -464 -7 -7 -46 -14 -87 -17 l-76 -5 0
-33 0 -34 260 0 260 0 0 34 0 33 -70 5 c-38 3 -77 11 -85 18 -12 10 -15 41
-15 164 l0 151 95 95 c58 58 98 91 103 85 21 -23 293 -426 304 -450 18 -40 -7
-58 -87 -63 l-65 -4 0 -34 0 -34 270 0 270 0 0 34 0 33 -61 6 c-45 4 -67 11
-86 29 -25 23 -418 584 -429 611 -7 18 277 291 344 329 26 15 73 33 105 39 56
11 57 12 57 45 l0 34 -240 0 -240 0 0 -35 c0 -34 1 -35 43 -35 53 0 91 -19 95
-47 5 -37 -45 -97 -267 -318 l-211 -210 0 271 c0 230 2 273 15 284 8 7 47 15
85 18 l70 5 0 33 0 34 -260 0 -260 0 0 -35z"/>
<path d="M3954 4796 c-46 -20 -100 -79 -137 -149 l-32 -62 -3 103 -3 102 -112
-5 c-154 -8 -157 -9 -157 -45 0 -30 1 -30 53 -30 29 0 58 -5 65 -12 18 -18 17
-561 0 -576 -7 -5 -34 -13 -60 -16 -42 -6 -48 -10 -48 -32 l0 -24 210 0 210 0
0 24 c0 21 -5 24 -62 30 -96 9 -102 21 -93 171 8 146 17 199 51 291 29 81 82
150 131 170 48 21 58 18 39 -11 -39 -60 -1 -135 69 -135 55 0 85 35 85 101 0
45 -4 55 -34 85 -30 30 -40 34 -87 34 -30 -1 -68 -7 -85 -14z"/>
<path d="M4477 4795 c-59 -22 -124 -74 -162 -129 -56 -82 -68 -127 -69 -251 0
-143 22 -205 103 -286 66 -66 124 -89 221 -89 77 0 121 12 169 48 37 28 111
136 111 162 0 18 -43 36 -48 21 -11 -32 -67 -104 -93 -120 -75 -46 -166 -34
-228 28 -49 49 -72 114 -78 226 -12 200 68 346 190 347 88 2 123 -31 87 -81
-11 -16 -20 -45 -20 -64 0 -69 90 -102 145 -54 67 57 28 179 -71 228 -60 30
-197 37 -257 14z"/>
<path d="M5000 4757 c0 -24 -3 -85 -6 -135 l-7 -92 26 0 c21 0 28 6 33 28 19
93 51 140 109 162 32 12 245 27 245 17 0 -3 -99 -146 -220 -318 -163 -231
-220 -319 -220 -340 l0 -29 304 0 304 0 6 23 c3 12 6 75 6 140 l0 117 -24 0
c-21 0 -26 -7 -35 -52 -15 -69 -42 -109 -90 -136 -34 -19 -61 -24 -166 -29
-94 -5 -125 -3 -125 6 0 7 97 149 215 316 165 234 215 312 215 335 l0 30 -285
0 -285 0 0 -43z"/>
<path d="M2593 4783 c-62 -4 -63 -4 -63 -33 0 -29 2 -30 45 -30 32 0 51 -6 65
-20 19 -19 20 -33 20 -249 0 -126 3 -242 6 -259 9 -43 69 -111 118 -133 56
-25 176 -25 231 0 38 17 125 96 125 113 0 4 5 8 10 8 6 0 10 -30 10 -71 0 -69
1 -71 23 -65 12 3 75 6 140 6 l117 0 0 29 c0 28 -2 30 -55 36 -88 11 -85 0
-85 362 l0 313 -53 0 c-30 0 -95 -3 -145 -6 l-92 -7 0 -28 c0 -28 1 -29 55
-29 90 0 95 -10 95 -188 0 -271 -37 -363 -157 -398 -56 -16 -96 -13 -146 13
-53 27 -57 55 -57 363 l0 280 -72 -2 c-40 -1 -101 -3 -135 -5z"/>
<path d="M1005 4660 c-237 -50 -432 -153 -607 -319 -257 -244 -389 -549 -389
-901 0 -336 114 -617 350 -862 154 -161 309 -264 499 -332 66 -23 262 -69 269
-62 1 1 -125 321 -281 710 -201 502 -290 715 -309 734 -22 21 -38 27 -92 30
l-65 4 0 54 0 54 340 0 340 0 0 -55 0 -55 -88 0 c-91 0 -132 -14 -132 -47 0
-8 88 -237 195 -509 l195 -493 0 -216 0 -215 38 0 38 0 263 663 c145 364 276
690 292 724 34 77 71 103 147 103 l52 0 0 50 0 50 -330 0 -330 0 0 -50 0 -50
53 0 c66 0 138 -34 151 -71 7 -21 -24 -108 -180 -504 l-189 -479 -3 1032 -2
1032 -68 -1 c-37 0 -107 -9 -157 -19z"/>
<path d="M2703 3543 l-73 -4 0 -34 0 -35 63 0 c36 0 68 -5 75 -12 9 -9 12
-141 12 -534 l0 -523 -22 -15 c-13 -9 -43 -16 -70 -16 -47 0 -48 -1 -48 -30
l0 -30 215 0 215 0 0 30 c0 29 -1 30 -50 30 -37 0 -55 5 -70 20 -20 20 -20 33
-20 590 l0 570 -77 -2 c-43 -1 -111 -4 -150 -5z"/>
<path d="M5889 3491 c-60 -61 -24 -151 61 -151 56 0 90 34 90 89 0 32 -6 44
-31 65 -41 35 -83 34 -120 -3z"/>
<path d="M5277 3371 c-14 -135 -85 -247 -172 -271 -40 -11 -45 -16 -45 -41 0
-29 0 -29 64 -29 l63 0 5 -297 c4 -194 10 -308 17 -328 16 -40 59 -84 98 -101
46 -20 150 -17 199 5 82 37 144 148 144 259 0 40 -2 42 -29 42 -29 0 -40 -18
-41 -65 0 -44 -24 -101 -55 -132 -42 -42 -99 -46 -140 -10 -36 30 -44 105 -45
400 l0 227 125 0 125 0 0 35 0 35 -125 0 -125 0 0 165 0 165 -29 0 c-27 0 -28
-2 -34 -59z"/>
<path d="M1949 3104 c-65 -19 -139 -72 -161 -114 -22 -42 -23 -108 -3 -137 20
-29 63 -42 103 -31 25 7 37 18 48 44 14 33 13 39 -7 80 -24 51 -21 66 18 91
38 25 184 25 231 0 54 -29 72 -70 72 -162 l0 -80 -115 -22 c-132 -26 -254 -70
-314 -113 -149 -108 -126 -306 43 -360 24 -8 71 -11 125 -8 97 5 161 31 231
94 l39 35 21 -40 c11 -22 33 -47 50 -56 36 -19 110 -19 154 -1 31 13 76 59 76
77 0 5 -29 6 -64 2 -92 -8 -90 -15 -96 307 -5 244 -7 268 -26 300 -43 75 -136
110 -283 109 -53 0 -117 -7 -142 -15z m301 -466 c0 -104 -16 -152 -66 -202
-47 -46 -96 -66 -165 -66 -56 0 -64 3 -94 33 -61 61 -56 160 11 223 42 40 185
88 307 103 4 1 7 -41 7 -91z"/>
<path d="M3443 3099 c-146 -56 -243 -219 -245 -409 -2 -190 80 -320 239 -380
83 -31 226 -25 298 12 55 29 119 92 155 152 l23 39 -24 18 c-24 18 -24 18 -50
-24 -61 -96 -130 -137 -231 -137 -70 0 -129 23 -165 61 -35 38 -70 129 -77
197 l-6 62 279 0 278 0 -4 53 c-14 164 -86 287 -205 346 -53 27 -72 31 -137
30 -51 0 -93 -7 -128 -20z m197 -54 c38 -20 75 -70 89 -120 14 -53 14 -138 -1
-153 -8 -8 -64 -12 -186 -12 l-175 0 6 60 c9 105 70 207 137 233 30 11 102 7
130 -8z"/>
<path d="M4482 3105 c-47 -21 -98 -62 -130 -106 -16 -21 -32 -36 -35 -32 -4 3
-7 35 -7 70 l0 64 -77 -6 c-213 -16 -203 -14 -203 -45 0 -26 3 -28 55 -32 31
-3 61 -10 68 -17 17 -17 17 -595 0 -612 -7 -7 -37 -14 -68 -17 -53 -4 -55 -6
-55 -33 l0 -29 210 0 210 0 0 30 c0 29 -1 30 -48 30 -88 0 -87 -1 -86 232 1
156 5 216 17 258 52 176 257 230 337 89 24 -43 25 -49 28 -291 4 -239 3 -247
-17 -267 -16 -16 -34 -21 -71 -21 -49 0 -50 -1 -50 -30 l0 -30 210 0 210 0 0
30 c0 29 -2 30 -43 30 -23 0 -53 7 -65 16 -22 15 -22 18 -22 258 0 186 -3 254
-15 293 -35 119 -123 183 -249 183 -39 -1 -86 -7 -104 -15z"/>
<path d="M6722 3105 c-47 -21 -98 -62 -130 -106 -16 -21 -32 -36 -35 -32 -4 3
-7 35 -7 70 l0 64 -77 -6 c-213 -16 -203 -14 -203 -45 0 -26 3 -28 55 -32 31
-3 61 -10 68 -17 17 -17 17 -595 0 -612 -7 -7 -37 -14 -68 -17 -53 -4 -55 -6
-55 -33 l0 -29 210 0 210 0 0 30 c0 29 -1 30 -48 30 -88 0 -87 -1 -86 232 1
156 5 216 17 258 52 176 257 230 337 89 24 -43 25 -49 28 -291 4 -239 3 -247
-17 -267 -16 -16 -34 -21 -71 -21 -49 0 -50 -1 -50 -30 l0 -30 210 0 210 0 0
30 c0 29 -2 30 -43 30 -23 0 -53 7 -65 16 -22 15 -22 18 -22 258 0 186 -3 254
-15 293 -35 119 -123 183 -249 183 -39 -1 -86 -7 -104 -15z"/>
<path d="M5930 3093 c-225 -15 -210 -12 -210 -43 0 -26 2 -27 66 -33 36 -2 71
-10 77 -16 9 -9 12 -97 12 -307 0 -337 4 -324 -87 -324 -47 0 -48 -1 -48 -30
l0 -30 215 0 215 0 0 30 c0 29 -1 30 -51 30 -96 0 -89 -29 -89 375 l0 355 -27
-2 c-16 -1 -48 -3 -73 -5z"/>
<path d="M7441 2478 c-85 -57 -51 -178 49 -178 88 0 131 95 73 160 -38 42 -79
48 -122 18z"/>
</g>
</svg>
